<svg width="166" height="158" viewBox="0 0 166 158" fill="none" xmlns="http://www.w3.org/2000/svg">
<g clip-path="url(#clip0_14_2)">
<path d="M115.02 109.907C121.146 109.274 125.794 104 125.582 97.6719C125.371 91.344 120.09 86.2813 113.753 86.2813H113.331C106.781 86.4924 101.712 91.9766 101.923 98.5156C102.135 101.68 103.402 104.422 105.303 106.32C98.1209 120.454 87.1364 130.79 70.6596 139.438C59.4637 145.345 47.8456 147.454 36.2275 145.978C26.7215 144.712 19.328 140.494 14.68 133.532C7.92066 123.196 7.28713 112.016 12.9908 100.836C17.0046 92.8203 23.3411 86.9139 27.355 83.9607C26.5101 81.2186 25.2424 76.578 24.6088 73.2033C-6.0214 95.352 -2.85248 125.305 6.44222 139.438C13.4129 149.986 27.5664 156.525 43.1983 156.525C47.4228 156.525 51.6474 156.103 55.8726 155.049C82.9118 149.775 103.402 133.743 115.02 109.907ZM152.199 83.7502C136.145 64.9763 112.486 54.6404 85.4465 54.6404H82.0669C80.1657 50.8435 76.1518 48.3118 71.7159 48.3118H71.2931C64.7452 48.5229 59.6757 54.0071 59.8864 60.5468C60.0978 66.8747 65.3787 71.9374 71.7159 71.9374H72.138C76.7854 71.7264 80.7992 68.7731 82.489 64.7652H86.2915C102.346 64.7652 117.555 69.4057 131.287 78.4764C141.848 85.4376 149.453 94.5083 153.678 105.477C157.269 114.336 157.057 122.985 153.255 130.368C147.341 141.548 137.412 147.665 124.315 147.665C115.865 147.665 107.838 145.134 103.613 143.235C101.29 145.345 97.0646 148.719 94.1071 150.83C103.191 155.048 112.486 157.369 121.358 157.369C141.637 157.369 156.635 146.188 162.339 135.009C168.465 122.774 168.042 101.68 152.199 83.7502ZM44.8881 113.492C45.0995 119.821 50.3803 124.883 56.7175 124.883H57.1403C63.6889 124.672 68.7584 119.187 68.547 112.648C68.3362 106.32 63.0547 101.258 56.7175 101.258H56.2954C55.8726 101.258 55.2384 101.258 54.817 101.468C46.1558 87.1243 42.5647 71.5153 43.8324 54.6397C44.6767 41.9832 48.9019 31.0141 56.2954 21.9434C62.4212 14.1386 74.2506 10.3417 82.2783 10.1313C104.669 9.70911 114.175 37.5531 114.809 48.7333C117.555 49.3659 122.203 50.8429 125.371 51.8976C122.836 17.7257 101.712 0.00646973 81.4334 0.00646973C62.4212 0.00646973 44.8881 13.7177 37.9167 33.968C28.1999 60.9683 34.5371 86.9139 46.3665 107.375C45.3109 108.851 44.6767 111.171 44.8881 113.492Z" fill="#764ABC"/>
</g>
<defs>
<clipPath id="clip0_14_2">
<rect width="166" height="158" fill="white"/>
</clipPath>
</defs>
</svg>
