<svg width="17" height="19" viewBox="0 0 17 19" fill="none" xmlns="http://www.w3.org/2000/svg">
<path d="M3.56235 14.103C3.23489 13.6664 2.90743 12.9023 2.2525 11.9199C1.92503 11.3741 0.942643 10.2826 0.61518 9.84594C0.396871 9.40932 0.39687 9.19102 0.506025 8.7544C0.615179 8.09947 1.27011 7.5537 2.03419 7.5537C2.57996 7.5537 3.12573 7.99032 3.56235 8.31778C3.78066 8.53609 4.10813 8.97271 4.32644 9.19102C4.54474 9.40932 4.54474 9.51848 4.76305 9.73679C4.98136 10.0643 5.09052 10.2826 4.98136 9.84594C4.87221 9.30017 4.76305 8.42693 4.54474 7.5537C4.43559 6.89877 4.32643 6.78962 4.21728 6.353C4.10813 5.80722 3.99897 5.47976 3.88982 4.93399C3.78066 4.60652 3.67151 3.73329 3.56235 3.29667C3.4532 2.7509 3.4532 1.7685 3.88982 1.33189C4.21728 1.00442 4.87221 0.895268 5.30883 1.11358C5.8546 1.44104 6.18206 2.20512 6.29122 2.53259C6.50953 3.07836 6.72784 3.84244 6.83699 4.71568C7.0553 5.80722 7.38276 7.44454 7.38276 7.77201C7.38276 7.33539 7.27361 6.57131 7.38276 6.13469C7.49192 5.80722 7.71023 5.37061 8.14685 5.26145C8.47431 5.1523 8.80177 5.1523 9.12924 5.1523C9.4567 5.26145 9.78416 5.47976 10.0025 5.69807C10.4391 6.353 10.4391 7.77201 10.4391 7.66285C10.5482 7.22623 10.5482 6.353 10.7666 5.91638C10.8757 5.69807 11.3123 5.47976 11.5306 5.37061C11.8581 5.26145 12.2947 5.26145 12.6222 5.37061C12.8405 5.37061 13.2771 5.69807 13.3863 5.91638C13.6046 6.24384 13.7137 7.33539 13.8229 7.77201C13.8229 7.88116 13.932 7.33539 14.1503 7.00792C14.587 6.353 16.1151 6.13469 16.2243 7.66285C16.2243 8.42693 16.2243 8.31778 16.2243 8.86355C16.2243 9.40933 16.2243 9.73679 16.2243 10.1734C16.2243 10.61 16.1151 11.5924 16.006 12.029C15.8968 12.3565 15.5694 13.1206 15.2419 13.5572C15.2419 13.5572 14.0412 14.8671 13.932 15.522C13.8229 16.1769 13.8229 16.1769 13.8229 16.6135C13.8229 17.0501 13.932 17.5959 13.932 17.5959C13.932 17.5959 13.0588 17.7051 12.6222 17.5959C12.1856 17.4868 11.6398 16.7227 11.5306 16.3952C11.3123 16.0678 10.9849 16.0678 10.7666 16.3952C10.5482 16.8318 10.0025 17.5959 9.56585 17.5959C8.80177 17.7051 7.27361 17.5959 6.18206 17.5959C6.18206 17.5959 6.40037 16.5044 5.96375 16.0678C5.63629 15.7403 5.09052 15.1945 4.76305 14.8671L3.56235 14.103Z" fill="white"/>
<path d="M3.56235 14.103C3.23489 13.6664 2.90743 12.9023 2.2525 11.9199C1.92503 11.3741 0.942643 10.2826 0.61518 9.84594C0.396871 9.40932 0.39687 9.19102 0.506025 8.7544C0.615179 8.09947 1.27011 7.5537 2.03419 7.5537C2.57996 7.5537 3.12573 7.99032 3.56235 8.31778C3.78066 8.53609 4.10813 8.97271 4.32644 9.19102C4.54474 9.40932 4.54474 9.51848 4.76305 9.73679C4.98136 10.0643 5.09052 10.2826 4.98136 9.84594C4.87221 9.30017 4.76305 8.42693 4.54474 7.5537C4.43559 6.89877 4.32643 6.78962 4.21728 6.353C4.10813 5.80722 3.99897 5.47976 3.88982 4.93399C3.78066 4.60652 3.67151 3.73329 3.56235 3.29667C3.4532 2.7509 3.4532 1.7685 3.88982 1.33189C4.21728 1.00442 4.87221 0.895268 5.30883 1.11358C5.8546 1.44104 6.18206 2.20512 6.29122 2.53259C6.50953 3.07836 6.72784 3.84244 6.83699 4.71568C7.0553 5.80722 7.38276 7.44454 7.38276 7.77201C7.38276 7.33539 7.27361 6.57131 7.38276 6.13469C7.49192 5.80722 7.71023 5.37061 8.14685 5.26145C8.47431 5.1523 8.80177 5.1523 9.12924 5.1523C9.4567 5.26145 9.78416 5.47976 10.0025 5.69807C10.4391 6.353 10.4391 7.77201 10.4391 7.66285C10.5482 7.22623 10.5482 6.353 10.7666 5.91638C10.8757 5.69807 11.3123 5.47976 11.5306 5.37061C11.8581 5.26145 12.2947 5.26145 12.6222 5.37061C12.8405 5.37061 13.2771 5.69807 13.3863 5.91638C13.6046 6.24384 13.7137 7.33539 13.8229 7.77201C13.8229 7.88116 13.932 7.33539 14.1503 7.00792C14.587 6.353 16.1151 6.13469 16.2243 7.66285C16.2243 8.42693 16.2243 8.31778 16.2243 8.86355C16.2243 9.40933 16.2243 9.73679 16.2243 10.1734C16.2243 10.61 16.1151 11.5924 16.006 12.029C15.8968 12.3565 15.5694 13.1206 15.2419 13.5572C15.2419 13.5572 14.0412 14.8671 13.932 15.522C13.8229 16.1769 13.8229 16.1769 13.8229 16.6135C13.8229 17.0501 13.932 17.5959 13.932 17.5959C13.932 17.5959 13.0588 17.7051 12.6222 17.5959C12.1856 17.4868 11.6398 16.7227 11.5306 16.3952C11.3123 16.0678 10.9849 16.0678 10.7666 16.3952C10.5482 16.8318 10.0025 17.5959 9.56585 17.5959C8.80177 17.7051 7.27361 17.5959 6.18206 17.5959C6.18206 17.5959 6.40037 16.5044 5.96375 16.0678C5.63629 15.7403 5.09052 15.1945 4.76305 14.8671L3.56235 14.103Z" stroke="black" stroke-width="0.75" stroke-linecap="round" stroke-linejoin="round"/>
<path d="M12.6223 14.4304V10.7192" stroke="black" stroke-width="0.75" stroke-linecap="round"/>
<path d="M10.439 14.4304L10.3298 10.7192" stroke="black" stroke-width="0.75" stroke-linecap="round"/>
<path d="M8.2561 10.7192V14.4304" stroke="black" stroke-width="0.75" stroke-linecap="round"/>
</svg>
