<svg width="40" height="40" viewBox="0 0 40 40" fill="none" xmlns="http://www.w3.org/2000/svg">
    <path opacity="0.5" d="M20.0002 36.6667C12.1434 36.6667 8.21505 36.6667 5.77428 34.2259C3.3335 31.7852 3.3335 27.8567 3.3335 20C3.3335 12.1433 3.3335 8.21492 5.77428 5.77416C8.21505 3.33337 12.1434 3.33337 20.0002 3.33337C27.8568 3.33337 31.7853 3.33337 34.226 5.77416C36.6668 8.21492 36.6668 12.1433 36.6668 20C36.6668 27.8567 36.6668 31.7852 34.226 34.2259C31.7853 36.6667 27.8568 36.6667 20.0002 36.6667Z" fill="rgb(var(--color-primary-blue))"/>
    <path d="M14.9496 14.9495C15.4378 14.4613 16.2292 14.4613 16.7173 14.9495L20.0002 18.2324L23.283 14.9495C23.7712 14.4614 24.5625 14.4614 25.0507 14.9495C25.5388 15.4377 25.5388 16.2291 25.0507 16.7172L21.768 20L25.0507 23.2829C25.5388 23.7709 25.5388 24.5624 25.0507 25.0505C24.5625 25.5387 23.771 25.5387 23.2828 25.0505L20.0002 21.7679L16.7175 25.0505C16.2293 25.5387 15.4378 25.5387 14.9496 25.0505C14.4615 24.5624 14.4615 23.771 14.9496 23.2829L18.2325 20L14.9496 16.7172C14.4615 16.2291 14.4615 15.4376 14.9496 14.9495Z" fill="rgb(var(--color-primary-blue))"/>
</svg>