<svg width="531" height="530" viewBox="0 0 531 530" fill="none" class="zg-sun" data-sun="">
    <path d="M265 530a263.821 263.821 0 0 1-137.312-38.355h274.624A263.821 263.821 0 0 1 265 530ZM63.966 437.599a266.43 266.43 0 0 0 42.958 40.098h316.152a266.43 266.43 0 0 0 42.958-40.098H63.966ZM0 265c0 2.319 0 4.62.087 6.974H530c0-2.302.087-4.603.087-6.974a266.19 266.19 0 0 0-2.057-33.125H2.057A266.32 266.32 0 0 0 0 265ZM265 0A265.001 265.001 0 0 0 3.016 224.901h523.968A264.999 264.999 0 0 0 265 0ZM.488 281.039a265.451 265.451 0 0 0 5.475 40.099h518.074a265.405 265.405 0 0 0 5.475-40.099H.488Zm8.072 50.978a262.182 262.182 0 0 0 13.948 40.099h484.95a262.289 262.289 0 0 0 13.947-40.099H8.56Zm20.015 52.791a266.103 266.103 0 0 0 25.07 40.099h422.71a266.116 266.116 0 0 0 25.07-40.099H28.575Z" fill="url(#paint0_linear_1824_5517)"></path>
    <defs>
        <linearGradient id="paint0_linear_1824_5517" x1="265" y1="34.328" x2="265" y2="505.627" gradientUnits="userSpaceOnUse">
            <stop offset="0" stop-color="#FFBDA1"></stop>
            <stop offset=".14" stop-color="#DA969B"></stop>
            <stop offset=".38" stop-color="#A16187"></stop>
            <stop offset=".573" stop-color="#844775"></stop>
            <stop offset=".786" stop-color="#582D50"></stop>
            <stop offset="1" stop-color="#472340"></stop>
        </linearGradient>
    </defs>
</svg>